<mxfile host="app.diagrams.net" modified="2023-10-10T15:20:42.839Z" agent="Mozilla/5.0 (X11; Linux x86_64; rv:109.0) Gecko/20100101 Firefox/114.0" etag="AzJ-SHsd-5jWOx2Odojg" version="22.0.4" type="github">
  <diagram name="Página-1" id="Ri1iF89w23IOyqwTuAVd">
    <mxGraphModel dx="1434" dy="752" grid="1" gridSize="10" guides="1" tooltips="1" connect="1" arrows="1" fold="1" page="1" pageScale="1" pageWidth="827" pageHeight="1169" math="0" shadow="0">
      <root>
        <mxCell id="0" />
        <mxCell id="1" parent="0" />
        <mxCell id="FllwzwZ4MAOWf5rmHtK7-3" style="edgeStyle=orthogonalEdgeStyle;rounded=0;orthogonalLoop=1;jettySize=auto;html=1;exitX=0.5;exitY=1;exitDx=0;exitDy=0;endArrow=none;endFill=0;" edge="1" parent="1" source="FllwzwZ4MAOWf5rmHtK7-29" target="FllwzwZ4MAOWf5rmHtK7-2">
          <mxGeometry relative="1" as="geometry" />
        </mxCell>
        <mxCell id="FllwzwZ4MAOWf5rmHtK7-1" value="Trabajadores" style="whiteSpace=wrap;html=1;fillColor=#dae8fc;strokeColor=#6c8ebf;" vertex="1" parent="1">
          <mxGeometry x="320" y="80" width="120" height="40" as="geometry" />
        </mxCell>
        <mxCell id="FllwzwZ4MAOWf5rmHtK7-15" value="" style="edgeStyle=orthogonalEdgeStyle;rounded=1;orthogonalLoop=1;jettySize=auto;html=1;endArrow=none;endFill=0;" edge="1" parent="1" source="FllwzwZ4MAOWf5rmHtK7-2" target="FllwzwZ4MAOWf5rmHtK7-7">
          <mxGeometry relative="1" as="geometry" />
        </mxCell>
        <mxCell id="FllwzwZ4MAOWf5rmHtK7-2" value="ESP" style="triangle;whiteSpace=wrap;html=1;rotation=90;fillColor=#fff2cc;strokeColor=#d6b656;" vertex="1" parent="1">
          <mxGeometry x="350" y="150" width="60" height="160" as="geometry" />
        </mxCell>
        <mxCell id="FllwzwZ4MAOWf5rmHtK7-10" style="edgeStyle=orthogonalEdgeStyle;rounded=1;orthogonalLoop=1;jettySize=auto;html=1;exitX=1;exitY=0;exitDx=0;exitDy=0;entryX=0.5;entryY=1;entryDx=0;entryDy=0;endArrow=none;endFill=0;" edge="1" parent="1" source="FllwzwZ4MAOWf5rmHtK7-5" target="FllwzwZ4MAOWf5rmHtK7-2">
          <mxGeometry relative="1" as="geometry">
            <Array as="points">
              <mxPoint x="240" y="260" />
              <mxPoint x="340" y="260" />
            </Array>
          </mxGeometry>
        </mxCell>
        <mxCell id="FllwzwZ4MAOWf5rmHtK7-20" style="edgeStyle=orthogonalEdgeStyle;rounded=1;orthogonalLoop=1;jettySize=auto;html=1;exitX=0;exitY=1;exitDx=0;exitDy=0;endArrow=none;endFill=0;" edge="1" parent="1" source="FllwzwZ4MAOWf5rmHtK7-5" target="FllwzwZ4MAOWf5rmHtK7-19">
          <mxGeometry relative="1" as="geometry" />
        </mxCell>
        <mxCell id="FllwzwZ4MAOWf5rmHtK7-5" value="Profesor" style="rounded=0;whiteSpace=wrap;html=1;fillColor=#dae8fc;strokeColor=#6c8ebf;" vertex="1" parent="1">
          <mxGeometry x="160" y="280" width="80" height="40" as="geometry" />
        </mxCell>
        <mxCell id="FllwzwZ4MAOWf5rmHtK7-11" style="edgeStyle=orthogonalEdgeStyle;rounded=1;orthogonalLoop=1;jettySize=auto;html=1;exitX=0.5;exitY=0;exitDx=0;exitDy=0;endArrow=none;endFill=0;" edge="1" parent="1" source="FllwzwZ4MAOWf5rmHtK7-6" target="FllwzwZ4MAOWf5rmHtK7-2">
          <mxGeometry relative="1" as="geometry" />
        </mxCell>
        <mxCell id="FllwzwZ4MAOWf5rmHtK7-6" value="Administracion" style="rounded=0;whiteSpace=wrap;html=1;fillColor=#dae8fc;strokeColor=#6c8ebf;" vertex="1" parent="1">
          <mxGeometry x="280" y="400" width="80" height="40" as="geometry" />
        </mxCell>
        <mxCell id="FllwzwZ4MAOWf5rmHtK7-7" value="Limpieza" style="rounded=0;whiteSpace=wrap;html=1;fillColor=#dae8fc;strokeColor=#6c8ebf;" vertex="1" parent="1">
          <mxGeometry x="400" y="400" width="80" height="40" as="geometry" />
        </mxCell>
        <mxCell id="FllwzwZ4MAOWf5rmHtK7-16" style="edgeStyle=orthogonalEdgeStyle;rounded=1;orthogonalLoop=1;jettySize=auto;html=1;exitX=0;exitY=0;exitDx=0;exitDy=0;entryX=0.5;entryY=0;entryDx=0;entryDy=0;endArrow=none;endFill=0;" edge="1" parent="1" source="FllwzwZ4MAOWf5rmHtK7-9" target="FllwzwZ4MAOWf5rmHtK7-2">
          <mxGeometry relative="1" as="geometry">
            <Array as="points">
              <mxPoint x="520" y="260" />
              <mxPoint x="420" y="260" />
            </Array>
          </mxGeometry>
        </mxCell>
        <mxCell id="FllwzwZ4MAOWf5rmHtK7-9" value="Mantenimiento" style="rounded=0;whiteSpace=wrap;html=1;fillColor=#dae8fc;strokeColor=#6c8ebf;" vertex="1" parent="1">
          <mxGeometry x="520" y="280" width="80" height="40" as="geometry" />
        </mxCell>
        <mxCell id="FllwzwZ4MAOWf5rmHtK7-14" value="" style="endArrow=none;html=1;curved=1;" edge="1" parent="1">
          <mxGeometry width="50" height="50" relative="1" as="geometry">
            <mxPoint x="240" y="200" as="sourcePoint" />
            <mxPoint x="520" y="200" as="targetPoint" />
            <Array as="points">
              <mxPoint x="380" y="380" />
            </Array>
          </mxGeometry>
        </mxCell>
        <mxCell id="FllwzwZ4MAOWf5rmHtK7-18" style="edgeStyle=orthogonalEdgeStyle;rounded=1;orthogonalLoop=1;jettySize=auto;html=1;exitX=1;exitY=0.5;exitDx=0;exitDy=0;entryX=0;entryY=0;entryDx=0;entryDy=0;endArrow=none;endFill=0;" edge="1" parent="1" source="FllwzwZ4MAOWf5rmHtK7-17" target="FllwzwZ4MAOWf5rmHtK7-5">
          <mxGeometry relative="1" as="geometry">
            <Array as="points">
              <mxPoint x="150" y="280" />
              <mxPoint x="150" y="280" />
            </Array>
          </mxGeometry>
        </mxCell>
        <mxCell id="FllwzwZ4MAOWf5rmHtK7-17" value="nº de registro" style="ellipse;whiteSpace=wrap;html=1;fillColor=#e1d5e7;strokeColor=#9673a6;" vertex="1" parent="1">
          <mxGeometry x="40" y="300" width="80" height="30" as="geometry" />
        </mxCell>
        <mxCell id="FllwzwZ4MAOWf5rmHtK7-19" value="especialidad" style="ellipse;whiteSpace=wrap;html=1;fillColor=#e1d5e7;strokeColor=#9673a6;" vertex="1" parent="1">
          <mxGeometry x="40" y="410" width="80" height="30" as="geometry" />
        </mxCell>
        <mxCell id="FllwzwZ4MAOWf5rmHtK7-22" style="edgeStyle=orthogonalEdgeStyle;rounded=1;orthogonalLoop=1;jettySize=auto;html=1;exitX=0.5;exitY=0;exitDx=0;exitDy=0;entryX=0.25;entryY=1;entryDx=0;entryDy=0;endArrow=none;endFill=0;" edge="1" parent="1" source="FllwzwZ4MAOWf5rmHtK7-21" target="FllwzwZ4MAOWf5rmHtK7-5">
          <mxGeometry relative="1" as="geometry">
            <Array as="points">
              <mxPoint x="170" y="360" />
              <mxPoint x="180" y="360" />
            </Array>
          </mxGeometry>
        </mxCell>
        <mxCell id="FllwzwZ4MAOWf5rmHtK7-21" value="cuerpo" style="ellipse;whiteSpace=wrap;html=1;fillColor=#e1d5e7;strokeColor=#9673a6;" vertex="1" parent="1">
          <mxGeometry x="130" y="380" width="80" height="30" as="geometry" />
        </mxCell>
        <mxCell id="FllwzwZ4MAOWf5rmHtK7-24" style="edgeStyle=orthogonalEdgeStyle;rounded=1;orthogonalLoop=1;jettySize=auto;html=1;exitX=0.5;exitY=0;exitDx=0;exitDy=0;entryX=0.5;entryY=1;entryDx=0;entryDy=0;endArrow=none;endFill=0;" edge="1" parent="1" source="FllwzwZ4MAOWf5rmHtK7-23" target="FllwzwZ4MAOWf5rmHtK7-5">
          <mxGeometry relative="1" as="geometry">
            <Array as="points">
              <mxPoint x="230" y="360" />
              <mxPoint x="200" y="360" />
            </Array>
          </mxGeometry>
        </mxCell>
        <mxCell id="FllwzwZ4MAOWf5rmHtK7-23" value="fecha de alta" style="ellipse;whiteSpace=wrap;html=1;fillColor=#e1d5e7;strokeColor=#9673a6;" vertex="1" parent="1">
          <mxGeometry x="190" y="410" width="80" height="30" as="geometry" />
        </mxCell>
        <mxCell id="FllwzwZ4MAOWf5rmHtK7-26" style="edgeStyle=orthogonalEdgeStyle;rounded=0;orthogonalLoop=1;jettySize=auto;html=1;exitX=0;exitY=0.5;exitDx=0;exitDy=0;entryX=1;entryY=0.5;entryDx=0;entryDy=0;endArrow=none;endFill=0;" edge="1" parent="1" source="FllwzwZ4MAOWf5rmHtK7-25" target="FllwzwZ4MAOWf5rmHtK7-1">
          <mxGeometry relative="1" as="geometry" />
        </mxCell>
        <mxCell id="FllwzwZ4MAOWf5rmHtK7-25" value="&lt;u&gt;ID&lt;/u&gt;" style="ellipse;whiteSpace=wrap;html=1;fillColor=#e1d5e7;strokeColor=#9673a6;" vertex="1" parent="1">
          <mxGeometry x="520" y="80" width="40" height="40" as="geometry" />
        </mxCell>
        <mxCell id="FllwzwZ4MAOWf5rmHtK7-28" style="edgeStyle=orthogonalEdgeStyle;rounded=1;orthogonalLoop=1;jettySize=auto;html=1;exitX=0;exitY=0.5;exitDx=0;exitDy=0;entryX=0;entryY=0.25;entryDx=0;entryDy=0;endArrow=none;endFill=0;" edge="1" parent="1" source="FllwzwZ4MAOWf5rmHtK7-27" target="FllwzwZ4MAOWf5rmHtK7-2">
          <mxGeometry relative="1" as="geometry" />
        </mxCell>
        <mxCell id="FllwzwZ4MAOWf5rmHtK7-27" value="Tipo" style="ellipse;whiteSpace=wrap;html=1;fillColor=#f8cecc;strokeColor=#b85450;" vertex="1" parent="1">
          <mxGeometry x="440" y="140" width="40" height="40" as="geometry" />
        </mxCell>
        <mxCell id="FllwzwZ4MAOWf5rmHtK7-30" value="" style="edgeStyle=orthogonalEdgeStyle;rounded=0;orthogonalLoop=1;jettySize=auto;html=1;exitX=0.5;exitY=1;exitDx=0;exitDy=0;endArrow=none;endFill=0;" edge="1" parent="1" source="FllwzwZ4MAOWf5rmHtK7-1" target="FllwzwZ4MAOWf5rmHtK7-29">
          <mxGeometry relative="1" as="geometry">
            <mxPoint x="380" y="120" as="sourcePoint" />
            <mxPoint x="380" y="200" as="targetPoint" />
          </mxGeometry>
        </mxCell>
        <mxCell id="FllwzwZ4MAOWf5rmHtK7-29" value="" style="ellipse;whiteSpace=wrap;html=1;fillColor=#fff2cc;strokeColor=#d6b656;" vertex="1" parent="1">
          <mxGeometry x="360" y="140" width="40" height="40" as="geometry" />
        </mxCell>
        <mxCell id="FllwzwZ4MAOWf5rmHtK7-32" value="1:1" style="text;html=1;align=center;verticalAlign=middle;resizable=0;points=[];autosize=1;strokeColor=none;fillColor=none;" vertex="1" parent="1">
          <mxGeometry x="290" y="170" width="40" height="30" as="geometry" />
        </mxCell>
        <mxCell id="FllwzwZ4MAOWf5rmHtK7-33" value="&lt;div&gt;0:1&lt;/div&gt;" style="text;html=1;align=center;verticalAlign=middle;resizable=0;points=[];autosize=1;strokeColor=none;fillColor=none;" vertex="1" parent="1">
          <mxGeometry x="150" y="260" width="40" height="30" as="geometry" />
        </mxCell>
        <mxCell id="FllwzwZ4MAOWf5rmHtK7-34" value="&lt;div&gt;0:1&lt;/div&gt;" style="text;html=1;align=center;verticalAlign=middle;resizable=0;points=[];autosize=1;strokeColor=none;fillColor=none;" vertex="1" parent="1">
          <mxGeometry x="270" y="380" width="40" height="30" as="geometry" />
        </mxCell>
        <mxCell id="FllwzwZ4MAOWf5rmHtK7-35" value="&lt;div&gt;0:1&lt;/div&gt;" style="text;html=1;align=center;verticalAlign=middle;resizable=0;points=[];autosize=1;strokeColor=none;fillColor=none;" vertex="1" parent="1">
          <mxGeometry x="394" y="380" width="40" height="30" as="geometry" />
        </mxCell>
        <mxCell id="FllwzwZ4MAOWf5rmHtK7-36" value="&lt;div&gt;0:1&lt;/div&gt;" style="text;html=1;align=center;verticalAlign=middle;resizable=0;points=[];autosize=1;strokeColor=none;fillColor=none;" vertex="1" parent="1">
          <mxGeometry x="510" y="320" width="40" height="30" as="geometry" />
        </mxCell>
      </root>
    </mxGraphModel>
  </diagram>
</mxfile>
